# xmcd
#
# Track frame offsets:
#	151
#	17121
#	32532
#	44226
#	63686
#	75841
#	93641
#	108833
#	122382
#	135354
#	152065
#	163607
#
# Disc length: 2729 seconds
#
# Revision: 1
# Processed by: cddbd v1.5.2PL0 Copyright (c) Steve Scherf et al.
# Submitted via: audiograbber 1.82.02
#
DISCID=8f0aa70c
DTITLE=Nadine Blom - Reën
DYEAR=2003
DGENRE=Pop
TTITLE0=Reën
TTITLE1=Taal van my hart
TTITLE2=Tot laat
TTITLE3=Stoom
TTITLE4=Veer
TTITLE5=Bly
TTITLE6=Molberge
TTITLE7=Gin
TTITLE8=Ek loop die pad
TTITLE9=Lisa se klavier
TTITLE10=Sondagmiddag blues
TTITLE11=Vier seisoene kind
EXTD=
EXTT0=
EXTT1=
EXTT2=
EXTT3=
EXTT4=
EXTT5=
EXTT6=
EXTT7=
EXTT8=
EXTT9=
EXTT10=
EXTT11=
PLAYORDER=
